<svg id="help" xmlns="http://www.w3.org/2000/svg" width="52.714" height="52.714" viewBox="0 0 52.714 52.714">
  <path id="Path_30" data-name="Path 30" d="M230.938,213.9a17.091,17.091,0,0,0-9.373-15.219,23.242,23.242,0,0,1-22.885,22.885,17.045,17.045,0,0,0,23.889,7l8.295,2.294-2.294-8.295A16.978,16.978,0,0,0,230.938,213.9Zm0,0" transform="translate(-178.224 -178.224)" fill="#fff"/>
  <path id="Path_31" data-name="Path 31" d="M40.256,20.128A20.128,20.128,0,1,0,2.791,30.359L.074,40.182,9.9,37.465A20.132,20.132,0,0,0,40.256,20.128ZM17.039,15.443H13.951A6.177,6.177,0,1,1,24.3,20l-2.624,2.4v2.409H18.584V21.044l3.628-3.32a3.057,3.057,0,0,0,1.005-2.28,3.089,3.089,0,1,0-6.177,0ZM18.584,27.9h3.089V30.99H18.584Zm0,0" fill="#fff"/>
</svg>
