<?xml version="1.0" ?><svg height="64px" version="1.1" viewBox="0 0 64 64" width="64px" xmlns="http://www.w3.org/2000/svg" xmlns:xlink="http://www.w3.org/1999/xlink"><title/><desc/><g fill="none" fill-rule="evenodd" id="Pause" stroke="none" stroke-width="1"><path d="M26.5,17 C27.8807119,17 29,18.1192881 29,19.5 L29,44.5 C29,45.8807119 27.8807119,47 26.5,47 C25.1192881,47 24,45.8807119 24,44.5 L24,19.5 C24,18.1192881 25.1192881,17 26.5,17 Z" fill="#FFF" id="Rectangle"/><path d="M37.5,17 C38.8807119,17 40,18.1192881 40,19.5 L40,44.5 C40,45.8807119 38.8807119,47 37.5,47 C36.1192881,47 35,45.8807119 35,44.5 L35,19.5 C35,18.1192881 36.1192881,17 37.5,17 Z" fill="#FFF" id="Rectangle"/></g></svg>