<svg xmlns="http://www.w3.org/2000/svg" width="58.968" height="49" viewBox="0 0 58.968 49">
  <g id="XMLID_240_" transform="translate(0 -39.748)">
    <path id="XMLID_241_" d="M232.152,173.47a.429.429,0,1,0,.429.428A.429.429,0,0,0,232.152,173.47Z" transform="translate(-202.667 -116.955)" fill="#fff"/>
    <path id="XMLID_242_" d="M29.484,39.748C13.151,39.748,0,51.57,0,61.359c0,4.926,3.108,7.74,7.622,9.362v6.585h0c0,4.966,9.789,11.441,21.862,11.441s21.862-6.476,21.863-11.441h0V70.721c4.513-1.622,7.621-4.438,7.621-9.362C58.968,51.57,45.817,39.748,29.484,39.748ZM51.347,66.339l-.032-1.292c-.421-1.153-4.4-2.154-10.2-2.734.023.349.045.7.045,1.055a15.723,15.723,0,0,1-.782,4.891c-.035.108-.064.22-.1.327A14.16,14.16,0,0,1,37.936,72.8a10.9,10.9,0,0,1-8.453,4.28A10.9,10.9,0,0,1,21.03,72.8a14.162,14.162,0,0,1-2.337-4.208c-.038-.107-.067-.219-.1-.327a15.715,15.715,0,0,1-.782-4.891c0-.356.023-.706.045-1.055-5.8.58-9.807,1.59-10.228,2.742l0,1.284c-2.33-1.135-3.6-2.732-3.6-4.982,0-6.919,10.934-17.59,25.463-17.59s25.463,10.671,25.463,17.59C54.947,63.608,53.676,65.206,51.347,66.339Z" fill="#fff"/>
    <path id="XMLID_245_" d="M168.676,135.942c-5.262,0-9.527,5.176-9.527,11.559s4.265,11.559,9.527,11.559,9.528-5.176,9.528-11.559S173.94,135.942,168.676,135.942Zm6.244,12.733a.354.354,0,0,1,.2.256l.518,2.743a.354.354,0,0,1-.627.283l-.557-.72a7.639,7.639,0,0,1-4.78,3.627l-.749.748a.353.353,0,0,1-.5,0l-.749-.748a7.643,7.643,0,0,1-4.781-3.627l-.558.72a.353.353,0,0,1-.626-.283l.518-2.743a.354.354,0,0,1,.2-.256.349.349,0,0,1,.326.02l2.39,1.441a.353.353,0,0,1-.206.655l-.933-.065a4.913,4.913,0,0,0,3.771,1.815V144.7h-.769a.746.746,0,1,1,0-1.192h.769v-1.078a1.62,1.62,0,1,1,1.788,0V143.5h.768a.745.745,0,1,1,0,1.192h-.768v7.845a4.913,4.913,0,0,0,3.771-1.815l-.934.065a.353.353,0,0,1-.206-.655l2.39-1.441A.349.349,0,0,1,174.92,148.675Z" transform="translate(-139.193 -84.132)" fill="#fff"/>
  </g>
</svg>
